<svg width="72" height="72" viewBox="0 0 72 72" fill="none" xmlns="http://www.w3.org/2000/svg">
<g filter="url(#filter0_dd)">
<path fill-rule="evenodd" clip-rule="evenodd" d="M2.79681 30.5985C3.34295 30.736 3.89962 30.8518 4.46596 30.9447C15.1309 32.6955 25.1921 25.6873 26.9382 15.2915C27.5403 11.7066 27.075 8.18694 25.7696 5.04209C35.5079 7.49389 41.9028 16.8453 40.2494 26.689C38.5033 37.0848 28.4421 44.093 17.7772 42.3423C10.7899 41.1953 5.27705 36.5733 2.79681 30.5985Z" fill="url(#paint0_linear)"/>
</g>
<mask id="mask0" mask-type="alpha" maskUnits="userSpaceOnUse" x="2" y="5" width="39" height="38">
<path fill-rule="evenodd" clip-rule="evenodd" d="M2.79876 30.5985C3.34491 30.736 3.90157 30.8518 4.46792 30.9447C15.1329 32.6955 25.194 25.6873 26.9402 15.2915C27.5423 11.7066 27.077 8.18694 25.7715 5.04209C35.5099 7.49389 41.9047 16.8453 40.2513 26.689C38.5052 37.0848 28.4441 44.093 17.7791 42.3423C10.7919 41.1953 5.279 36.5733 2.79876 30.5985Z" fill="url(#paint1_linear)"/>
</mask>
<g mask="url(#mask0)">
<path d="M17.9961 34.8778C16.3426 34.8778 14.7924 35.1722 13.3456 35.7612C11.8988 36.3502 10.6277 37.1453 9.53222 38.1465C8.43678 39.1478 7.57903 40.3453 6.95897 41.7392C6.33891 43.1331 6.01854 44.6153 5.99788 46.1859C5.99788 47.7564 6.3079 49.219 6.92797 50.5737C7.54803 51.9283 8.39544 53.1258 9.47021 54.1663C10.545 55.2068 11.8161 56.0216 13.2836 56.6105C14.7511 57.1995 16.2909 57.494 17.9031 57.494H53.6186C55.8095 57.494 57.866 57.1013 59.7882 56.316C61.7104 55.5308 63.3949 54.4608 64.8417 53.1062C66.2885 51.7516 67.4253 50.1516 68.2521 48.3061C69.0788 46.4607 69.4922 44.4975 69.4922 42.4165C69.4922 40.3355 69.0788 38.3821 68.2521 36.5563C67.4253 34.7305 66.2989 33.1305 64.8727 31.7563C63.4466 30.382 61.7621 29.3022 59.8192 28.517C57.8764 27.7317 55.8095 27.339 53.6186 27.339C52.6678 27.339 51.7068 27.4274 50.7353 27.6041C49.9086 26.3869 48.9578 25.2973 47.883 24.3353C46.8083 23.3733 45.6198 22.5488 44.3177 21.8617C43.0156 21.1745 41.6514 20.6641 40.2253 20.3304C38.7991 19.9966 37.311 19.8199 35.7608 19.8003C33.4666 19.8003 31.3067 20.1831 29.2812 20.9488C27.2557 21.7144 25.4471 22.7647 23.8556 24.0997C22.2642 25.4347 20.9724 27.0347 19.9803 28.8998C18.9882 30.7648 18.3268 32.7575 17.9961 34.8778Z" fill="black" fill-opacity="0.1"/>
</g>
<g filter="url(#filter1_d)">
<path d="M20.25 37.3822C18.6875 37.3822 17.2227 37.6869 15.8555 38.2963C14.4883 38.9057 13.2871 39.7283 12.252 40.7643C11.2168 41.8002 10.4062 43.0393 9.82031 44.4814C9.23438 45.9236 8.93164 47.4572 8.91211 49.0822C8.91211 50.7072 9.20508 52.2205 9.79102 53.6221C10.377 55.0236 11.1777 56.2627 12.1934 57.3393C13.209 58.4158 14.4102 59.2588 15.7969 59.8682C17.1836 60.4775 18.6387 60.7822 20.1621 60.7822H53.9121C55.9824 60.7822 57.9258 60.376 59.7422 59.5635C61.5586 58.751 63.1504 57.6439 64.5176 56.2424C65.8848 54.8408 66.959 53.1854 67.7402 51.276C68.5215 49.3666 68.9121 47.3354 68.9121 45.1822C68.9121 43.0291 68.5215 41.008 67.7402 39.1189C66.959 37.2299 65.8945 35.5744 64.5469 34.1525C63.1992 32.7307 61.6074 31.6135 59.7715 30.801C57.9355 29.9885 55.9824 29.5822 53.9121 29.5822C53.0137 29.5822 52.1055 29.6736 51.1875 29.8564C50.4062 28.5971 49.5078 27.4697 48.4922 26.4744C47.4766 25.4791 46.3535 24.626 45.123 23.915C43.8926 23.2041 42.6035 22.676 41.2559 22.3307C39.9082 21.9854 38.502 21.8025 37.0371 21.7822C34.8691 21.7822 32.8281 22.1783 30.9141 22.9705C29 23.7627 27.291 24.8494 25.7871 26.2307C24.2832 27.6119 23.0625 29.2674 22.125 31.1971C21.1875 33.1268 20.5625 35.1885 20.25 37.3822Z" fill="url(#paint2_linear)"/>
</g>
<path d="M68.7057 43.8316C68.7057 50.8724 61.5624 55.1806 54.4897 55.1806C47.4171 55.1806 41.6836 49.4729 41.6836 42.4321C41.6836 35.3913 47.4171 29.6836 54.4897 29.6836C61.5624 29.6836 68.7057 36.7908 68.7057 43.8316Z" fill="url(#paint3_linear)"/>
<path d="M50.2676 34.1451C47.3441 34.1451 44.7384 35.2226 42.7046 36.934C42.7046 36.934 42.6411 36.934 42.6411 36.9973C43.8486 34.462 45.9459 32.3703 48.4881 31.166C46.3272 28.6941 43.2131 27.1729 39.654 27.1729C33.235 27.1729 28.0871 32.3703 28.0871 38.6453C28.0871 39.6595 28.2142 40.6736 28.4685 41.6244C27.5787 41.3074 26.6254 41.1173 25.6085 41.1173C21.1597 41.1173 17.5371 44.7302 17.5371 49.1036C17.5371 53.4771 21.1597 57.09 25.6085 57.09C25.6721 57.09 25.7356 57.09 25.7356 57.09H50.0134C50.077 57.09 50.1405 57.09 50.2041 57.09C56.6231 57.09 61.771 51.8925 61.771 45.6175C61.771 39.3425 56.6231 34.1451 50.2676 34.1451Z" fill="url(#paint4_linear)"/>
<defs>
<filter id="filter0_dd" x="0.796875" y="3.04199" width="41.7127" height="42.5683" filterUnits="userSpaceOnUse" color-interpolation-filters="sRGB">
<feFlood flood-opacity="0" result="BackgroundImageFix"/>
<feColorMatrix in="SourceAlpha" type="matrix" values="0 0 0 0 0 0 0 0 0 0 0 0 0 0 0 0 0 0 127 0"/>
<feOffset/>
<feGaussianBlur stdDeviation="1"/>
<feColorMatrix type="matrix" values="0 0 0 0 0.996078 0 0 0 0 0.878431 0 0 0 0 0.411765 0 0 0 1 0"/>
<feBlend mode="normal" in2="BackgroundImageFix" result="effect1_dropShadow"/>
<feColorMatrix in="SourceAlpha" type="matrix" values="0 0 0 0 0 0 0 0 0 0 0 0 0 0 0 0 0 0 127 0"/>
<feOffset dy="1"/>
<feGaussianBlur stdDeviation="1"/>
<feColorMatrix type="matrix" values="0 0 0 0 0 0 0 0 0 0 0 0 0 0 0 0 0 0 0.25 0"/>
<feBlend mode="normal" in2="effect1_dropShadow" result="effect2_dropShadow"/>
<feBlend mode="normal" in="SourceGraphic" in2="effect2_dropShadow" result="shape"/>
</filter>
<filter id="filter1_d" x="6.91211" y="21.7822" width="64" height="43" filterUnits="userSpaceOnUse" color-interpolation-filters="sRGB">
<feFlood flood-opacity="0" result="BackgroundImageFix"/>
<feColorMatrix in="SourceAlpha" type="matrix" values="0 0 0 0 0 0 0 0 0 0 0 0 0 0 0 0 0 0 127 0"/>
<feOffset dy="2"/>
<feGaussianBlur stdDeviation="1"/>
<feColorMatrix type="matrix" values="0 0 0 0 0 0 0 0 0 0 0 0 0 0 0 0 0 0 0.25 0"/>
<feBlend mode="normal" in2="BackgroundImageFix" result="effect1_dropShadow"/>
<feBlend mode="normal" in="SourceGraphic" in2="effect1_dropShadow" result="shape"/>
</filter>
<linearGradient id="paint0_linear" x1="30.6956" y1="44.0375" x2="7.13967" y2="13.4909" gradientUnits="userSpaceOnUse">
<stop offset="0.230136" stop-color="#FF9900"/>
<stop offset="0.590632" stop-color="#FBE000"/>
</linearGradient>
<linearGradient id="paint1_linear" x1="30.6976" y1="44.0375" x2="7.14162" y2="13.4909" gradientUnits="userSpaceOnUse">
<stop offset="0.230136" stop-color="#FF9900"/>
<stop offset="0.590632" stop-color="#FBE000"/>
</linearGradient>
<linearGradient id="paint2_linear" x1="11.8935" y1="24.9127" x2="68.7317" y2="58.7871" gradientUnits="userSpaceOnUse">
<stop stop-color="white"/>
<stop offset="0.387304" stop-color="#C6EBFF"/>
<stop offset="0.96875" stop-color="#96C6E0"/>
</linearGradient>
<linearGradient id="paint3_linear" x1="50.0991" y1="30.0478" x2="53.3639" y2="44.6239" gradientUnits="userSpaceOnUse">
<stop offset="0.265243" stop-color="#F4F8FA"/>
<stop offset="0.899425" stop-color="#F4F8FA" stop-opacity="0"/>
</linearGradient>
<linearGradient id="paint4_linear" x1="21.6405" y1="34.13" x2="46.9923" y2="59.6228" gradientUnits="userSpaceOnUse">
<stop offset="0.0589154" stop-color="#98DAFE"/>
<stop offset="0.751885" stop-color="#E7F6FF"/>
<stop offset="1" stop-color="#BCE6FF"/>
</linearGradient>
</defs>
</svg>
